# xmcd
#
# Track frame offsets:
# 182
# 14882
# 39745
# 51932
# 74542
#
# Disc length: 1200 seconds
#
#
# Revision: 0
# Processed by: cddbd v1.5.1PL0 Copyright (c) Steve Scherf et al.
# Submitted via: FreeRIP 2.91 
#
DISCID=4a04ae05
DTITLE=The Jimi Hendrix Experience - Radio Radio
DYEAR=1900
DGENRE=Blues
TTITLE0=Day Tripper
TTITLE1=Hoochie Koochie Man
TTITLE2=Hound Dog
TTITLE3=Hear My Train A Comin'
TTITLE4=Stone Free
EXTD=
EXTT0=
EXTT1=
EXTT2=
EXTT3=
EXTT4=
PLAYORDER=
